<svg version="1.1" id="Layer_1" xmlns="http://www.w3.org/2000/svg" xmlns:xlink="http://www.w3.org/1999/xlink" x="0px" y="0px"
	 viewBox="0 0 175.61 104" style="enable-background:new 0 0 175.61 104;" xml:space="preserve">
<g>
	<g>
		<g>
			<polygon class="logo-fill-color" points="168.68,15.89 174.6,5.65 102.63,5.65 108.55,15.89 "/>
			<polygon class="logo-fill-color" points="1.01,5.65 6.93,15.89 67.06,15.89 72.98,5.65 "/>
			<polygon class="logo-fill-color" points="12.81,26.08 18.72,36.32 55.27,36.32 61.18,26.08 "/>
			<polygon class="logo-fill-color" points="156.89,36.32 162.8,26.08 114.43,26.08 120.34,36.32 "/>
			<polygon class="logo-fill-color" points="145.05,56.83 150.97,46.57 126.26,46.57 132.18,56.83 "/>
			<polygon class="logo-fill-color" points="24.63,46.57 30.55,56.83 43.43,56.83 49.35,46.57 "/>
			<polygon class="logo-fill-color" points="87.81,46.57 81.89,56.83 93.72,56.83 "/>
		</g>
		<polygon class="logo-fill-color" points="87.8,0 45.39,73.46 62.5,73.46 87.81,29.63 113.11,73.46 130.22,73.46"/>
	</g>
	<g>
		<polygon class="logo-fill-color" points="53.84,89.68 53.84,86.1 30.56,86.1 26.98,86.1 26.98,89.68 26.98,93.26 26.98,96.84 30.56,96.84
			50.26,96.84 50.26,100.42 26.98,100.42 26.98,104 50.26,104 53.84,104 53.84,100.42 53.84,96.84 53.84,93.26 50.26,93.26
			30.56,93.26 30.56,89.68"/>
		<polygon class="logo-fill-color" points="175.61,86.1 163.97,86.1 160.39,86.1 148.75,86.1 148.75,89.68 160.39,89.68 160.39,104 163.97,104
			163.97,89.68 175.61,89.68"/>
		<polygon class="logo-fill-color" points="114.72,89.68 114.72,86.1 91.44,86.1 87.86,86.1 87.86,89.68 87.86,93.26 87.86,96.84 87.86,100.42
			87.86,104 91.44,104 114.72,104 114.72,100.42 91.44,100.42 91.44,96.84 114.72,96.84 114.72,93.26 91.44,93.26 91.44,89.68"/>
		<polygon class="logo-fill-color" points="84.28,89.68 84.28,86.1 61,86.1 57.42,86.1 57.42,89.68 57.42,100.42 57.42,104 61,104 84.28,104
			84.28,100.42 61,100.42 61,89.68"/>
		<polygon class="logo-fill-color" points="141.58,86.1 141.58,100.42 121.89,86.1 118.3,86.1 118.3,104 121.89,104 121.89,89.68 141.58,104
			145.17,104 145.17,86.1"/>
		<polygon class="logo-fill-color" points="11.83,83.51 0,104 4.77,104 11.83,91.77 18.89,104 23.66,104"/>
	</g>
</g>
</svg>
