<svg version="1.2" baseProfile="tiny" id="Layer_1" xmlns="http://www.w3.org/2000/svg" xmlns:xlink="http://www.w3.org/1999/xlink"
	 x="0px" y="0px" viewBox="0 0 500 500" xml:space="preserve">
<path class="logo-fill-color" d="M284.11,250L494.17,39.94c7.77-7.77,7.77-20.37,0-28.14l-5.97-5.97c-7.77-7.77-20.37-7.77-28.14,0
	L250,215.89L39.94,5.83c-7.77-7.77-20.37-7.77-28.14,0L5.83,11.8c-7.77,7.77-7.77,20.37,0,28.14L215.89,250L5.83,460.06
	c-7.77,7.77-7.77,20.37,0,28.14l5.97,5.97c7.77,7.77,20.37,7.77,28.14,0L250,284.11l210.06,210.06c7.77,7.77,20.37,7.77,28.14,0
	l5.97-5.97c7.77-7.77,7.77-20.37,0-28.14L284.11,250z"/>
</svg>
