<svg version="1.2" baseProfile="tiny" xmlns="http://www.w3.org/2000/svg" xmlns:xlink="http://www.w3.org/1999/xlink"
	 x="0px" y="0px" viewBox="0 0 500 500" xml:space="preserve">
<path class="logo-fill-color" d="M487.29,429.48L386.27,328.48c22.67-33.61,35.9-74.11,35.9-117.7C422.17,94.36,327.81,0,211.4,0
	C94.98,0,0.62,94.36,0.62,210.78c0,116.41,94.36,210.77,210.78,210.77c42.95,0,82.87-12.87,116.18-34.93L428.86,487.9
	c16.13,16.13,42.29,16.13,58.42,0C503.41,471.77,503.41,445.62,487.29,429.48z M50.55,210.78c0-88.69,72.16-160.85,160.85-160.85
	c88.69,0,160.84,72.16,160.84,160.85S300.09,371.62,211.4,371.62S50.55,299.47,50.55,210.78z"/>
</svg>
