<svg version="1.1" id="Layer_1" xmlns="http://www.w3.org/2000/svg" xmlns:xlink="http://www.w3.org/1999/xlink" x="0px" y="0px"
	 viewBox="0 0 175.61 20.49" style="enable-background:new 0 0 175.61 20.49;" xml:space="preserve">
	<g>
		<g>
			<polygon class="logo-fill-color" points="53.84,6.17 53.84,2.59 30.56,2.59 26.98,2.59 26.98,6.17 26.98,9.75 26.98,13.33 30.56,13.33
				50.26,13.33 50.26,16.91 26.98,16.91 26.98,20.49 50.26,20.49 53.84,20.49 53.84,16.91 53.84,13.33 53.84,9.75 50.26,9.75
				30.56,9.75 30.56,6.17"/>
			<polygon class="logo-fill-color" points="175.61,2.59 163.97,2.59 160.39,2.59 148.75,2.59 148.75,6.17 160.39,6.17 160.39,20.49
				163.97,20.49 163.97,6.17 175.61,6.17"/>
			<polygon class="logo-fill-color" points="114.72,6.17 114.72,2.59 91.44,2.59 87.86,2.59 87.86,6.17 87.86,9.75 87.86,13.33 87.86,16.91
				87.86,20.49 91.44,20.49 114.72,20.49 114.72,16.91 91.44,16.91 91.44,13.33 114.72,13.33 114.72,9.75 91.44,9.75 91.44,6.17
				"/>
			<polygon class="logo-fill-color" points="84.28,6.17 84.28,2.59 61,2.59 57.42,2.59 57.42,6.17 57.42,16.91 57.42,20.49 61,20.49 84.28,20.49
				84.28,16.91 61,16.91 61,6.17"/>
			<polygon class="logo-fill-color" points="141.58,2.59 141.58,16.91 121.89,2.59 118.3,2.59 118.3,20.49 121.89,20.49 121.89,6.17
				141.58,20.49 145.17,20.49 145.17,2.59"/>
			<polygon class="logo-fill-color" points="11.83,0 0,20.49 4.77,20.49 11.83,8.26 18.89,20.49 23.66,20.49"/>
		</g>
	</g>
</svg>
